<mxfile host="www.draw.io" modified="2020-02-17T21:33:52.098Z" agent="Mozilla/5.0 (Windows NT 10.0; Win64; x64) AppleWebKit/537.36 (KHTML, like Gecko) Chrome/80.0.3987.100 Safari/537.36" etag="Zgjy29dQNxrEccynsIfQ" version="12.7.1" type="github">
  <diagram id="C5RBs43oDa-KdzZeNtuy" name="Page-1">
    <mxGraphModel dx="1901" dy="1046" grid="0" gridSize="10" guides="1" tooltips="1" connect="1" arrows="1" fold="1" page="1" pageScale="1" pageWidth="827" pageHeight="1169" math="0" shadow="0">
      <root>
        <mxCell id="WIyWlLk6GJQsqaUBKTNV-0" />
        <mxCell id="WIyWlLk6GJQsqaUBKTNV-1" parent="WIyWlLk6GJQsqaUBKTNV-0" />
        <mxCell id="zkfFHV4jXpPFQw0GAbJ--0" value="Canvas.html" style="swimlane;fontStyle=2;align=center;verticalAlign=top;childLayout=stackLayout;horizontal=1;startSize=26;horizontalStack=0;resizeParent=1;resizeLast=0;collapsible=1;marginBottom=0;rounded=0;shadow=0;strokeWidth=1;" parent="WIyWlLk6GJQsqaUBKTNV-1" vertex="1">
          <mxGeometry x="338.43" y="539" width="160" height="138" as="geometry">
            <mxRectangle x="230" y="140" width="160" height="26" as="alternateBounds" />
          </mxGeometry>
        </mxCell>
        <mxCell id="zkfFHV4jXpPFQw0GAbJ--4" value="" style="line;html=1;strokeWidth=1;align=left;verticalAlign=middle;spacingTop=-1;spacingLeft=3;spacingRight=3;rotatable=0;labelPosition=right;points=[];portConstraint=eastwest;" parent="zkfFHV4jXpPFQw0GAbJ--0" vertex="1">
          <mxGeometry y="26" width="160" height="8" as="geometry" />
        </mxCell>
        <mxCell id="zkfFHV4jXpPFQw0GAbJ--6" value="Modules&#xa;" style="swimlane;fontStyle=0;align=center;verticalAlign=top;childLayout=stackLayout;horizontal=1;startSize=26;horizontalStack=0;resizeParent=1;resizeLast=0;collapsible=1;marginBottom=0;rounded=0;shadow=0;strokeWidth=1;" parent="WIyWlLk6GJQsqaUBKTNV-1" vertex="1">
          <mxGeometry x="338.43" y="836" width="160" height="138" as="geometry">
            <mxRectangle x="130" y="380" width="160" height="26" as="alternateBounds" />
          </mxGeometry>
        </mxCell>
        <mxCell id="zkfFHV4jXpPFQw0GAbJ--9" value="" style="line;html=1;strokeWidth=1;align=left;verticalAlign=middle;spacingTop=-1;spacingLeft=3;spacingRight=3;rotatable=0;labelPosition=right;points=[];portConstraint=eastwest;" parent="zkfFHV4jXpPFQw0GAbJ--6" vertex="1">
          <mxGeometry y="26" width="160" height="8" as="geometry" />
        </mxCell>
        <mxCell id="zkfFHV4jXpPFQw0GAbJ--12" value="" style="endArrow=classic;endSize=6;endFill=1;shadow=0;strokeWidth=1;rounded=0;edgeStyle=elbowEdgeStyle;elbow=vertical;" parent="WIyWlLk6GJQsqaUBKTNV-1" source="zkfFHV4jXpPFQw0GAbJ--6" target="zkfFHV4jXpPFQw0GAbJ--0" edge="1">
          <mxGeometry width="160" relative="1" as="geometry">
            <mxPoint x="318.43" y="622" as="sourcePoint" />
            <mxPoint x="318.43" y="622" as="targetPoint" />
            <Array as="points">
              <mxPoint x="386.43" y="756" />
            </Array>
          </mxGeometry>
        </mxCell>
        <mxCell id="zkfFHV4jXpPFQw0GAbJ--13" value="Settings.js" style="swimlane;fontStyle=0;align=center;verticalAlign=top;childLayout=stackLayout;horizontal=1;startSize=26;horizontalStack=0;resizeParent=1;resizeLast=0;collapsible=1;marginBottom=0;rounded=0;shadow=0;strokeWidth=1;" parent="WIyWlLk6GJQsqaUBKTNV-1" vertex="1">
          <mxGeometry x="598.43" y="836" width="160" height="70" as="geometry">
            <mxRectangle x="340" y="380" width="170" height="26" as="alternateBounds" />
          </mxGeometry>
        </mxCell>
        <mxCell id="zkfFHV4jXpPFQw0GAbJ--15" value="" style="line;html=1;strokeWidth=1;align=left;verticalAlign=middle;spacingTop=-1;spacingLeft=3;spacingRight=3;rotatable=0;labelPosition=right;points=[];portConstraint=eastwest;" parent="zkfFHV4jXpPFQw0GAbJ--13" vertex="1">
          <mxGeometry y="26" width="160" height="8" as="geometry" />
        </mxCell>
        <mxCell id="zkfFHV4jXpPFQw0GAbJ--16" value="" style="endArrow=classic;endSize=6;endFill=1;shadow=0;strokeWidth=1;rounded=0;edgeStyle=elbowEdgeStyle;elbow=vertical;" parent="WIyWlLk6GJQsqaUBKTNV-1" source="zkfFHV4jXpPFQw0GAbJ--13" target="zkfFHV4jXpPFQw0GAbJ--0" edge="1">
          <mxGeometry width="160" relative="1" as="geometry">
            <mxPoint x="328.43" y="792" as="sourcePoint" />
            <mxPoint x="428.43" y="690" as="targetPoint" />
            <Array as="points">
              <mxPoint x="480.43" y="786" />
              <mxPoint x="474.43" y="751" />
            </Array>
          </mxGeometry>
        </mxCell>
        <mxCell id="NLUK51RsSy9vVQg30392-0" style="edgeStyle=orthogonalEdgeStyle;rounded=0;orthogonalLoop=1;jettySize=auto;html=1;exitX=0;exitY=0.5;exitDx=0;exitDy=0;entryX=1;entryY=0.5;entryDx=0;entryDy=0;" parent="WIyWlLk6GJQsqaUBKTNV-1" source="L0QavP9Y0DeLJxCt0mfg-2" target="zkfFHV4jXpPFQw0GAbJ--0" edge="1">
          <mxGeometry relative="1" as="geometry" />
        </mxCell>
        <mxCell id="L0QavP9Y0DeLJxCt0mfg-2" value="Style.css" style="swimlane;fontStyle=0;align=center;verticalAlign=top;childLayout=stackLayout;horizontal=1;startSize=26;horizontalStack=0;resizeParent=1;resizeLast=0;collapsible=1;marginBottom=0;rounded=0;shadow=0;strokeWidth=1;" parent="WIyWlLk6GJQsqaUBKTNV-1" vertex="1">
          <mxGeometry x="598.43" y="573" width="160" height="70" as="geometry">
            <mxRectangle x="340" y="380" width="170" height="26" as="alternateBounds" />
          </mxGeometry>
        </mxCell>
        <mxCell id="L0QavP9Y0DeLJxCt0mfg-3" value="" style="line;html=1;strokeWidth=1;align=left;verticalAlign=middle;spacingTop=-1;spacingLeft=3;spacingRight=3;rotatable=0;labelPosition=right;points=[];portConstraint=eastwest;" parent="L0QavP9Y0DeLJxCt0mfg-2" vertex="1">
          <mxGeometry y="26" width="160" height="8" as="geometry" />
        </mxCell>
        <mxCell id="L0QavP9Y0DeLJxCt0mfg-4" value="aStar.js&#xa;" style="swimlane;fontStyle=0;align=center;verticalAlign=top;childLayout=stackLayout;horizontal=1;startSize=26;horizontalStack=0;resizeParent=1;resizeLast=0;collapsible=1;marginBottom=0;rounded=0;shadow=0;strokeWidth=1;" parent="WIyWlLk6GJQsqaUBKTNV-1" vertex="1">
          <mxGeometry x="598.43" y="1018" width="160" height="70" as="geometry">
            <mxRectangle x="340" y="380" width="170" height="26" as="alternateBounds" />
          </mxGeometry>
        </mxCell>
        <mxCell id="L0QavP9Y0DeLJxCt0mfg-8" style="edgeStyle=orthogonalEdgeStyle;rounded=0;orthogonalLoop=1;jettySize=auto;html=1;exitX=0;exitY=0.5;exitDx=0;exitDy=0;entryX=0.5;entryY=1;entryDx=0;entryDy=0;" parent="L0QavP9Y0DeLJxCt0mfg-4" target="zkfFHV4jXpPFQw0GAbJ--13" edge="1">
          <mxGeometry relative="1" as="geometry">
            <mxPoint x="90" y="-0.5" as="sourcePoint" />
            <mxPoint x="208" y="-209" as="targetPoint" />
            <Array as="points">
              <mxPoint x="80" y="-1" />
            </Array>
          </mxGeometry>
        </mxCell>
        <mxCell id="L0QavP9Y0DeLJxCt0mfg-5" value="" style="line;html=1;strokeWidth=1;align=left;verticalAlign=middle;spacingTop=-1;spacingLeft=3;spacingRight=3;rotatable=0;labelPosition=right;points=[];portConstraint=eastwest;" parent="L0QavP9Y0DeLJxCt0mfg-4" vertex="1">
          <mxGeometry y="26" width="160" height="8" as="geometry" />
        </mxCell>
        <mxCell id="L0QavP9Y0DeLJxCt0mfg-12" style="edgeStyle=orthogonalEdgeStyle;rounded=0;orthogonalLoop=1;jettySize=auto;html=1;exitX=0.25;exitY=0;exitDx=0;exitDy=0;endArrow=classic;endFill=1;" parent="WIyWlLk6GJQsqaUBKTNV-1" source="L0QavP9Y0DeLJxCt0mfg-6" edge="1">
          <mxGeometry relative="1" as="geometry">
            <mxPoint x="338.43" y="633" as="targetPoint" />
            <Array as="points">
              <mxPoint x="191.42999999999998" y="633" />
            </Array>
          </mxGeometry>
        </mxCell>
        <mxCell id="L0QavP9Y0DeLJxCt0mfg-6" value="Main.js" style="swimlane;fontStyle=0;align=center;verticalAlign=top;childLayout=stackLayout;horizontal=1;startSize=26;horizontalStack=0;resizeParent=1;resizeLast=0;collapsible=1;marginBottom=0;rounded=0;shadow=0;strokeWidth=1;" parent="WIyWlLk6GJQsqaUBKTNV-1" vertex="1">
          <mxGeometry x="66.43" y="870" width="160" height="70" as="geometry">
            <mxRectangle x="340" y="380" width="170" height="26" as="alternateBounds" />
          </mxGeometry>
        </mxCell>
        <mxCell id="L0QavP9Y0DeLJxCt0mfg-7" value="" style="line;html=1;strokeWidth=1;align=left;verticalAlign=middle;spacingTop=-1;spacingLeft=3;spacingRight=3;rotatable=0;labelPosition=right;points=[];portConstraint=eastwest;" parent="L0QavP9Y0DeLJxCt0mfg-6" vertex="1">
          <mxGeometry y="26" width="160" height="8" as="geometry" />
        </mxCell>
        <mxCell id="L0QavP9Y0DeLJxCt0mfg-9" style="edgeStyle=orthogonalEdgeStyle;rounded=0;orthogonalLoop=1;jettySize=auto;html=1;entryX=0.75;entryY=1;entryDx=0;entryDy=0;exitX=0;exitY=0.5;exitDx=0;exitDy=0;" parent="WIyWlLk6GJQsqaUBKTNV-1" source="L0QavP9Y0DeLJxCt0mfg-4" target="zkfFHV4jXpPFQw0GAbJ--6" edge="1">
          <mxGeometry relative="1" as="geometry">
            <mxPoint x="403.43" y="1174" as="sourcePoint" />
            <mxPoint x="387.43" y="938.25" as="targetPoint" />
            <Array as="points">
              <mxPoint x="458.43" y="1053" />
            </Array>
          </mxGeometry>
        </mxCell>
        <mxCell id="L0QavP9Y0DeLJxCt0mfg-11" style="edgeStyle=orthogonalEdgeStyle;rounded=0;orthogonalLoop=1;jettySize=auto;html=1;exitX=0;exitY=0.5;exitDx=0;exitDy=0;entryX=0.5;entryY=1;entryDx=0;entryDy=0;" parent="WIyWlLk6GJQsqaUBKTNV-1" source="L0QavP9Y0DeLJxCt0mfg-4" target="L0QavP9Y0DeLJxCt0mfg-6" edge="1">
          <mxGeometry relative="1" as="geometry">
            <mxPoint x="558.43" y="1129" as="sourcePoint" />
            <mxPoint x="678.43" y="888" as="targetPoint" />
            <Array as="points">
              <mxPoint x="146.42999999999998" y="1053" />
            </Array>
          </mxGeometry>
        </mxCell>
        <mxCell id="L0QavP9Y0DeLJxCt0mfg-0" style="edgeStyle=orthogonalEdgeStyle;rounded=0;orthogonalLoop=1;jettySize=auto;html=1;entryX=0;entryY=0.5;entryDx=0;entryDy=0;exitX=1;exitY=0.5;exitDx=0;exitDy=0;" parent="WIyWlLk6GJQsqaUBKTNV-1" source="L0QavP9Y0DeLJxCt0mfg-6" target="zkfFHV4jXpPFQw0GAbJ--6" edge="1">
          <mxGeometry relative="1" as="geometry">
            <mxPoint x="186.42999999999998" y="941" as="sourcePoint" />
            <mxPoint x="240.42999999999998" y="886" as="targetPoint" />
            <Array as="points">
              <mxPoint x="264.43" y="905" />
              <mxPoint x="264.43" y="905" />
            </Array>
          </mxGeometry>
        </mxCell>
        <mxCell id="NLUK51RsSy9vVQg30392-2" value="" style="rounded=0;whiteSpace=wrap;html=1;" parent="WIyWlLk6GJQsqaUBKTNV-1" vertex="1">
          <mxGeometry x="50.42999999999995" y="40" width="724" height="401" as="geometry" />
        </mxCell>
        <mxCell id="NLUK51RsSy9vVQg30392-3" value="" style="rounded=0;whiteSpace=wrap;html=1;fillColor=#999999;" parent="WIyWlLk6GJQsqaUBKTNV-1" vertex="1">
          <mxGeometry x="78.7600000000001" y="62" width="324" height="282" as="geometry" />
        </mxCell>
        <mxCell id="NLUK51RsSy9vVQg30392-4" value="" style="rounded=0;whiteSpace=wrap;html=1;fillColor=#33FFFF;" parent="WIyWlLk6GJQsqaUBKTNV-1" vertex="1">
          <mxGeometry x="213.7600000000001" y="355.5" width="54" height="15" as="geometry" />
        </mxCell>
        <mxCell id="NLUK51RsSy9vVQg30392-5" value="Start" style="text;html=1;strokeColor=none;fillColor=none;align=center;verticalAlign=middle;whiteSpace=wrap;rounded=0;" parent="WIyWlLk6GJQsqaUBKTNV-1" vertex="1">
          <mxGeometry x="220.7600000000001" y="353" width="40" height="20" as="geometry" />
        </mxCell>
        <mxCell id="NLUK51RsSy9vVQg30392-6" value="" style="rounded=0;whiteSpace=wrap;html=1;fillColor=#E6E6E6;" parent="WIyWlLk6GJQsqaUBKTNV-1" vertex="1">
          <mxGeometry x="454.7600000000001" y="298.5" width="272" height="19" as="geometry" />
        </mxCell>
        <mxCell id="NLUK51RsSy9vVQg30392-7" value="" style="rounded=0;whiteSpace=wrap;html=1;fillColor=#33FFFF;" parent="WIyWlLk6GJQsqaUBKTNV-1" vertex="1">
          <mxGeometry x="583.2599999999999" y="299" width="21.5" height="18" as="geometry" />
        </mxCell>
        <mxCell id="NLUK51RsSy9vVQg30392-8" value="Amount of obstacles = 150" style="text;html=1;strokeColor=none;fillColor=none;align=center;verticalAlign=middle;whiteSpace=wrap;rounded=0;" parent="WIyWlLk6GJQsqaUBKTNV-1" vertex="1">
          <mxGeometry x="499.1400000000002" y="320" width="189.75" height="20" as="geometry" />
        </mxCell>
        <mxCell id="NLUK51RsSy9vVQg30392-9" value="" style="rounded=0;whiteSpace=wrap;html=1;fillColor=#E6E6E6;" parent="WIyWlLk6GJQsqaUBKTNV-1" vertex="1">
          <mxGeometry x="454.7600000000001" y="169" width="49" height="25" as="geometry" />
        </mxCell>
        <mxCell id="NLUK51RsSy9vVQg30392-10" value="" style="rounded=0;whiteSpace=wrap;html=1;fillColor=#33FFFF;" parent="WIyWlLk6GJQsqaUBKTNV-1" vertex="1">
          <mxGeometry x="454.7600000000001" y="169" width="23" height="25" as="geometry" />
        </mxCell>
        <mxCell id="NLUK51RsSy9vVQg30392-12" value="Player Control" style="text;html=1;strokeColor=none;fillColor=none;align=center;verticalAlign=middle;whiteSpace=wrap;rounded=0;" parent="WIyWlLk6GJQsqaUBKTNV-1" vertex="1">
          <mxGeometry x="459.2600000000001" y="203" width="40" height="20" as="geometry" />
        </mxCell>
        <mxCell id="NLUK51RsSy9vVQg30392-13" value="" style="rounded=0;whiteSpace=wrap;html=1;fillColor=#E6E6E6;" parent="WIyWlLk6GJQsqaUBKTNV-1" vertex="1">
          <mxGeometry x="534.2599999999999" y="169" width="49" height="25" as="geometry" />
        </mxCell>
        <mxCell id="NLUK51RsSy9vVQg30392-14" value="" style="rounded=0;whiteSpace=wrap;html=1;fillColor=#33FFFF;" parent="WIyWlLk6GJQsqaUBKTNV-1" vertex="1">
          <mxGeometry x="534.2599999999999" y="169" width="24" height="25" as="geometry" />
        </mxCell>
        <mxCell id="NLUK51RsSy9vVQg30392-15" value="Obstacals On/Off" style="text;html=1;strokeColor=none;fillColor=none;align=center;verticalAlign=middle;whiteSpace=wrap;rounded=0;" parent="WIyWlLk6GJQsqaUBKTNV-1" vertex="1">
          <mxGeometry x="538.7599999999999" y="203" width="40" height="20" as="geometry" />
        </mxCell>
        <mxCell id="NLUK51RsSy9vVQg30392-16" value="&lt;font style=&quot;font-size: 19px&quot;&gt;A* Snake Game&lt;/font&gt;" style="text;html=1;strokeColor=none;fillColor=none;align=center;verticalAlign=middle;whiteSpace=wrap;rounded=0;" parent="WIyWlLk6GJQsqaUBKTNV-1" vertex="1">
          <mxGeometry x="513.1500000000002" y="65" width="161.75" height="20" as="geometry" />
        </mxCell>
        <mxCell id="NLUK51RsSy9vVQg30392-17" value="&lt;font style=&quot;font-size: 14px&quot;&gt;Score = 0&lt;/font&gt;" style="text;html=1;strokeColor=none;fillColor=none;align=center;verticalAlign=middle;whiteSpace=wrap;rounded=0;" parent="WIyWlLk6GJQsqaUBKTNV-1" vertex="1">
          <mxGeometry x="638.2599999999999" y="183" width="83" height="20" as="geometry" />
        </mxCell>
        <mxCell id="bH_4fbmzV3XeJtYwQd2H-0" value="&lt;font style=&quot;font-size: 14px&quot;&gt;Calculations&amp;nbsp; = 0&lt;/font&gt;" style="text;html=1;strokeColor=none;fillColor=none;align=center;verticalAlign=middle;whiteSpace=wrap;rounded=0;" parent="WIyWlLk6GJQsqaUBKTNV-1" vertex="1">
          <mxGeometry x="613.7599999999999" y="203" width="126" height="20" as="geometry" />
        </mxCell>
        <mxCell id="bH_4fbmzV3XeJtYwQd2H-4" value="&lt;font style=&quot;font-size: 14px&quot;&gt;Steps = 0&lt;/font&gt;" style="text;html=1;strokeColor=none;fillColor=none;align=center;verticalAlign=middle;whiteSpace=wrap;rounded=0;" parent="WIyWlLk6GJQsqaUBKTNV-1" vertex="1">
          <mxGeometry x="638.2599999999999" y="163" width="83" height="20" as="geometry" />
        </mxCell>
      </root>
    </mxGraphModel>
  </diagram>
</mxfile>
